<?xml version="1.0" encoding="UTF-8" standalone="no"?>
<!-- Created with Inkscape (http://www.inkscape.org/) -->
<svg
   xmlns:svg="http://www.w3.org/2000/svg"
   xmlns="http://www.w3.org/2000/svg"
   version="1.0"
   width="400"
   height="100"
   id="svg2"
   xml:space="preserve"><defs
     id="defs5"><clipPath
       id="clipPath19"><path
         d="M 2056.6484,3325.3643 L 2313.665,3325.3643 L 2313.665,3270.2954 L 2056.6484,3270.2954 L 2056.6484,3325.3643 z"
         id="path21" /></clipPath><clipPath
       id="clipPath39"><path
         d="M 2056.6484,3325.3643 L 2313.665,3325.3643 L 2313.665,3270.2954 L 2056.6484,3270.2954 L 2056.6484,3325.3643 z"
         id="path41" /></clipPath></defs><g
     transform="matrix(1.25,0,0,-1.25,-1389.5638,2467.2975)"
     id="g11"><g
       transform="matrix(1.1844974,0,0,1.1844974,-253.26435,-372.16808)"
       id="g3312"><g
         transform="translate(-897.57844,-1351.5262)"
         id="g15"><g
           clip-path="url(#clipPath19)"
           id="g17"><path
             d="M 2091.9814,3318.1377 C 2089.1445,3318.1377 2087.0791,3315.8789 2086.8193,3312.5874 L 2096.499,3312.5874 C 2096.626,3316.2012 2094.8213,3318.1377 2091.9824,3318.1377 L 2091.9814,3318.1377 M 2105.8555,3306.0723 L 2086.7539,3306.0723 C 2086.8193,3301.8125 2089.4014,3299.3608 2094.6914,3299.3608 C 2097.8535,3299.3608 2101.1445,3300.0049 2104.1123,3301.3594 L 2105.0146,3293.9424 C 2101.4014,3292.4561 2097.0791,3291.7432 2093.1416,3291.7432 C 2082.625,3291.7432 2076.8184,3296.8428 2076.8184,3308.1328 C 2076.8184,3318.0059 2082.3047,3325.2949 2092.2402,3325.2949 C 2101.918,3325.2949 2106.1758,3318.7783 2106.1758,3310.3916 C 2106.1758,3309.0381 2106.0469,3307.6152 2105.8555,3306.0688"
             id="path23"
             style="fill:#000000;fill-opacity:1;fill-rule:nonzero;stroke:none" /><path
             d="M 2129.6621,3306.1367 C 2123.8555,3306.1367 2120.8867,3304.9082 2120.8867,3301.9414 C 2120.8867,3300.2656 2122.0488,3299.1045 2124.1123,3299.1045 C 2127.4063,3299.1045 2129.6621,3302.1367 2129.6621,3305.2334 L 2129.6621,3306.1367 L 2129.6621,3306.1367 M 2130.5654,3292.3936 C 2130.5654,3294.0063 2130.5654,3295.6826 2130.8223,3297.2959 L 2130.7578,3297.2959 C 2129.21,3293.9438 2125.4043,3291.7451 2120.9502,3291.7451 C 2114.8213,3291.7451 2111.5938,3295.3589 2111.5938,3300.5225 C 2111.5938,3308.6519 2119.4658,3312.1362 2129.6582,3312.2656 L 2129.6582,3313.8784 C 2129.6582,3316.6543 2128.4346,3317.8799 2124.4326,3317.8799 C 2123.0801,3317.8799 2121.8506,3317.6875 2120.8184,3317.4287 C 2120.6904,3316.3965 2120.4941,3315.1055 2120.2383,3313.8799 L 2113.9795,3313.8799 L 2113.9795,3323.6885 C 2117.4658,3324.7207 2121.4014,3325.3672 2125.2725,3325.3672 C 2136.4355,3325.3672 2139.5313,3321.2363 2139.5313,3313.8818 L 2139.5313,3299.9473 C 2141.0801,3299.6885 2143.0801,3299.4302 2144.6934,3299.3027 L 2144.6934,3292.9131 C 2140.499,3292.4629 2135.209,3292.2051 2130.5625,3292.3989"
             id="path25"
             style="fill:#000000;fill-opacity:1;fill-rule:nonzero;stroke:none" /><path
             d="M 2195.3838,3317.4917 L 2187.8369,3292.457 L 2176.9971,3292.457 L 2173.5107,3303.6211 C 2172.8037,3305.9434 2172.2236,3308.3291 2171.6416,3311.2969 L 2171.5771,3311.2969 C 2170.9326,3308.2666 2170.2861,3305.8774 2169.4463,3303.2324 L 2166.2861,3292.457 L 2155.6406,3292.457 L 2148.2842,3317.4917 C 2147.252,3317.6206 2146.2197,3317.751 2145.251,3318.0093 L 2145.251,3324.5264 L 2160.9941,3324.5264 L 2160.9941,3318.0093 C 2160.2217,3317.8154 2159.4453,3317.6875 2158.543,3317.6226 L 2160.1572,3311.687 C 2160.8027,3309.2349 2161.5117,3306.7832 2162.0303,3304.2021 L 2162.1582,3304.2021 C 2162.7393,3307.6851 2163.5801,3310.4595 2164.417,3313.1704 L 2167.9658,3324.5264 L 2176.6123,3324.5264 L 2180.0977,3313.1704 C 2181.0654,3310.0083 2181.709,3307.3633 2182.417,3304.2021 L 2182.5479,3304.2021 C 2183.001,3306.7188 2183.5811,3308.7842 2184.1611,3311.041 L 2186.0938,3317.6206 C 2185.2568,3317.6851 2184.4189,3317.8145 2183.6455,3318.0068 L 2183.6455,3324.5244 L 2198.4189,3324.5244 L 2198.4189,3318.0068 C 2197.4502,3317.749 2196.4209,3317.6206 2195.3857,3317.4902"
             id="path27"
             style="fill:#000000;fill-opacity:1;fill-rule:nonzero;stroke:none" /><path
             d="M 2218.0322,3306.1367 C 2212.2236,3306.1367 2209.2588,3304.9082 2209.2588,3301.9414 C 2209.2588,3300.2656 2210.4189,3299.1045 2212.4834,3299.1045 C 2215.7734,3299.1045 2218.0322,3302.1367 2218.0322,3305.2334 L 2218.0322,3306.1367 L 2218.0322,3306.1367 M 2218.9346,3292.3936 C 2218.9346,3294.0063 2218.9346,3295.6826 2219.1943,3297.2959 L 2219.1328,3297.2959 C 2217.5811,3293.9438 2213.7744,3291.7451 2209.3242,3291.7451 C 2203.1914,3291.7451 2199.9658,3295.3589 2199.9658,3300.5225 C 2199.9658,3308.6519 2207.8369,3312.1362 2218.0322,3312.2656 L 2218.0322,3313.8784 C 2218.0322,3316.6543 2216.8057,3317.8799 2212.8076,3317.8799 C 2211.4521,3317.8799 2210.2227,3317.6875 2209.1934,3317.4287 C 2209.0625,3316.3965 2208.8701,3315.1055 2208.6104,3313.8799 L 2202.3525,3313.8799 L 2202.3525,3323.6885 C 2205.8369,3324.7207 2209.7725,3325.3672 2213.6436,3325.3672 C 2224.8057,3325.3672 2227.9053,3321.2363 2227.9053,3313.8818 L 2227.9053,3299.9473 C 2229.4521,3299.6885 2231.4521,3299.4302 2233.0654,3299.3027 L 2233.0654,3292.9131 C 2228.8711,3292.4629 2223.5811,3292.2051 2218.9346,3292.3989"
             id="path29"
             style="fill:#000000;fill-opacity:1;fill-rule:nonzero;stroke:none" /></g></g><path
         d="M 1352.532,1966.6759 C 1349.3708,1966.6759 1347.4353,1964.8039 1347.4353,1962.0304 C 1347.4353,1959.1261 1349.2419,1957.3205 1352.5954,1957.3205 C 1355.6296,1957.3205 1357.6277,1959.0636 1357.6277,1961.966 C 1357.6277,1964.8039 1355.821,1966.6759 1352.532,1966.6759 L 1352.532,1966.6759 M 1355.6159,1939.3654 L 1350.5173,1939.3654 C 1350.1316,1939.3654 1349.5495,1939.3654 1349.2273,1939.4279 C 1347.8728,1938.5231 1346.9821,1936.3967 1346.9157,1935.0402 C 1346.7702,1932.1574 1347.6745,1928.7599 1352.696,1928.7599 C 1357.278,1928.7599 1359.7448,1933.6208 1359.7448,1936.1379 C 1359.7448,1937.8771 1358.5847,1939.3639 1355.614,1939.3639 L 1355.6159,1939.3654 M 1351.6706,1921.3761 C 1342.9607,1921.3761 1337.3405,1927.0666 1337.3405,1933.3888 C 1337.3405,1936.4206 1339.5603,1940.5451 1342.0124,1941.7756 C 1340.1413,1942.6759 1338.9167,1944.4836 1338.9167,1946.7404 C 1338.9167,1949.3195 1340.5925,1951.7082 1342.7898,1952.6115 C 1339.8864,1954.1579 1338.0134,1957.2565 1338.0134,1961.4509 C 1338.0134,1968.1637 1342.7898,1973.7765 1352.8581,1973.7765 C 1355.114,1973.7765 1356.9841,1973.4533 1358.8571,1973.0002 L 1369.6316,1973.0002 L 1369.6316,1965.258 L 1365.9538,1965.258 C 1366.6003,1964.6139 1366.9226,1963.5793 1366.9226,1962.3537 C 1366.9226,1955.257 1362.0818,1950.7394 1352.7263,1950.7394 C 1352.0788,1950.7394 1351.2448,1950.8039 1350.5329,1950.8698 C 1349.6941,1950.5451 1349.3728,1949.8351 1349.3728,1949.2541 C 1349.3728,1947.9635 1350.2761,1947.5783 1353.9538,1947.5783 L 1358.3405,1947.5783 C 1365.2458,1947.5783 1369.28,1943.4543 1369.28,1937.0671 C 1369.28,1930.0334 1362.7693,1921.3761 1351.6726,1921.3761"
         id="path31"
         style="fill:#000000;fill-opacity:1;fill-rule:nonzero;stroke:none" /><path
         d="M 1380.5866,1932.3625 C 1377.7361,1932.3625 1375.4167,1930.0412 1375.4167,1927.1906 C 1375.4167,1924.34 1377.7361,1922.0187 1380.5866,1922.0187 C 1383.4353,1922.0187 1385.7575,1924.34 1385.7575,1927.1906 C 1385.7575,1930.0412 1383.4353,1932.3625 1380.5866,1932.3625 L 1380.5866,1932.3625 M 1384.195,1927.1886 C 1384.195,1925.2013 1382.5769,1923.5807 1380.5866,1923.5807 C 1378.5974,1923.5807 1376.9812,1925.2013 1376.9812,1927.1886 C 1376.9812,1929.1784 1378.5974,1930.797 1380.5866,1930.797 C 1382.5769,1930.797 1384.195,1929.1784 1384.195,1927.1886"
         id="path33"
         style="fill:#000000;fill-opacity:1;fill-rule:nonzero;stroke:none" /><g
         transform="translate(-897.57844,-1351.5262)"
         id="g35"><g
           clip-path="url(#clipPath39)"
           id="g37"><path
             d="M 2293.5186,3283.8887 C 2290.6689,3283.8887 2288.3486,3281.5674 2288.3486,3278.7168 C 2288.3486,3275.8662 2290.6689,3273.5449 2293.5186,3273.5449 C 2296.373,3273.5449 2298.6924,3275.8662 2298.6924,3278.7168 C 2298.6924,3281.5674 2296.373,3283.8887 2293.5186,3283.8887 L 2293.5186,3283.8887 M 2297.1309,3278.7148 C 2297.1309,3276.7275 2295.5088,3275.1069 2293.5186,3275.1069 C 2291.5293,3275.1069 2289.9131,3276.7275 2289.9131,3278.7148 C 2289.9131,3280.7046 2291.5293,3282.3232 2293.5186,3282.3232 C 2295.5088,3282.3232 2297.1309,3280.7046 2297.1309,3278.7148"
             id="path43"
             style="fill:#000000;fill-opacity:1;fill-rule:nonzero;stroke:none" /><path
             d="M 2308.4932,3283.8887 C 2305.6445,3283.8887 2303.3252,3281.5674 2303.3252,3278.7168 C 2303.3252,3275.8662 2305.6445,3273.5449 2308.4932,3273.5449 C 2311.3438,3273.5449 2313.665,3275.8662 2313.665,3278.7168 C 2313.665,3281.5674 2311.3438,3283.8887 2308.4932,3283.8887 L 2308.4932,3283.8887 M 2312.1006,3278.7148 C 2312.1006,3276.7275 2310.4834,3275.1069 2308.4932,3275.1069 C 2306.5059,3275.1069 2304.8877,3276.7275 2304.8877,3278.7148 C 2304.8877,3280.7046 2306.5059,3282.3232 2308.4932,3282.3232 C 2310.4834,3282.3232 2312.1006,3280.7046 2312.1006,3278.7148"
             id="path45"
             style="fill:#000000;fill-opacity:1;fill-rule:nonzero;stroke:none" /><path
             d="M 2061.917,3278.4688 C 2061.1904,3278.4688 2058.46,3278.4688 2058.46,3276.5186 C 2058.46,3275.9082 2058.8408,3274.8564 2060.4463,3274.8564 C 2061.3613,3274.8564 2062.0518,3275.2222 2062.4902,3275.8906 C 2062.8916,3276.5405 2062.9102,3277.0742 2062.9473,3278.4097 C 2062.624,3278.4492 2062.3564,3278.4688 2061.917,3278.4688 L 2061.917,3278.4688 M 2063.1592,3273.75 C 2063.0234,3274.2295 2062.9863,3274.6885 2062.9863,3275.1836 C 2062.127,3273.5996 2060.8301,3273.4453 2060.0273,3273.4453 C 2057.8311,3273.4453 2056.6484,3274.6865 2056.6484,3276.2734 C 2056.6484,3277.0347 2056.9111,3278.2568 2058.3242,3279.0806 C 2059.3564,3279.6533 2060.8848,3279.7095 2061.6484,3279.7095 C 2062.1084,3279.7095 2062.3965,3279.689 2062.9473,3279.6533 C 2062.9473,3280.8359 2062.9473,3281.353 2062.6045,3281.7705 C 2062.2422,3282.248 2061.458,3282.4023 2060.9434,3282.4023 C 2059.1289,3282.4023 2059.0332,3281.1587 2059.0146,3280.7783 L 2057.2207,3280.7783 C 2057.2754,3281.2739 2057.334,3281.9424 2057.8877,3282.5884 C 2058.6143,3283.3911 2059.9717,3283.6216 2060.9814,3283.6216 C 2062.374,3283.6216 2063.8652,3283.1802 2064.3799,3282.2085 C 2064.6855,3281.6367 2064.708,3281.1777 2064.708,3280.7383 L 2064.6289,3276.1523 C 2064.6289,3276.0005 2064.6494,3274.7227 2064.7832,3273.7466 L 2063.1592,3273.7466"
             id="path47"
             style="fill:#000000;fill-opacity:1;fill-rule:nonzero;stroke:none" /><path
             d="M 2073.2998,3282.1572 C 2070.7207,3282.1572 2070.6836,3279.4443 2070.6836,3278.6982 C 2070.6836,3278.0127 2070.7803,3276.6182 2071.4678,3275.6426 C 2071.8867,3275.0313 2072.6328,3274.708 2073.5283,3274.708 C 2075.7451,3274.708 2076.1846,3276.4443 2076.1846,3278.3555 C 2076.1846,3279.1387 2076.1846,3282.1572 2073.2998,3282.1572 L 2073.2998,3282.1572 M 2077.9795,3283.3403 C 2077.96,3282.958 2077.9414,3282.1196 2077.9414,3281.7734 L 2077.9414,3270.0654 L 2076.1289,3270.0654 L 2076.1289,3274.8228 C 2075.9746,3274.5942 2075.7822,3274.2856 2075.3438,3273.999 C 2074.543,3273.4473 2073.6279,3273.3887 2073.1865,3273.3887 C 2070.8574,3273.3887 2068.8105,3275.0313 2068.8105,3278.585 C 2068.8105,3282.1196 2070.8203,3283.4951 2072.8428,3283.4951 C 2074.791,3283.4951 2075.6885,3282.4229 2076.1104,3281.7539 L 2076.167,3283.3384 L 2077.9814,3283.3384"
             id="path49"
             style="fill:#000000;fill-opacity:1;fill-rule:nonzero;stroke:none" /></g></g><path
         d="M 1186.9157,1931.8141 L 1186.9157,1925.6457 C 1186.9157,1924.7072 1187.1267,1923.5246 1188.9587,1923.5246 C 1189.8552,1923.5246 1190.697,1923.8278 1191.2107,1924.5949 C 1191.614,1925.1672 1191.614,1925.9133 1191.614,1926.3918 L 1191.614,1931.8156 L 1193.4675,1931.8156 L 1193.4675,1924.0236 C 1193.4675,1923.8298 1193.5056,1922.7614 1193.5251,1922.2267 L 1191.6521,1922.2267 L 1191.614,1923.8708 C 1191.2702,1923.2043 1190.6218,1922.1325 1188.5583,1922.1325 C 1186.1921,1922.1325 1185.0827,1923.4884 1185.0827,1925.382 L 1185.0827,1931.8185 L 1186.9167,1931.8185"
         id="path51"
         style="fill:#000000;fill-opacity:1;fill-rule:nonzero;stroke:none" /><path
         d="M 1203.1696,1926.9426 C 1202.4441,1926.9426 1199.7126,1926.9426 1199.7126,1924.9924 C 1199.7126,1924.382 1200.0925,1923.3302 1201.698,1923.3302 C 1202.614,1923.3302 1203.3034,1923.696 1203.74,1924.3644 C 1204.1423,1925.0143 1204.1618,1925.548 1204.2009,1926.8835 C 1203.8757,1926.923 1203.6071,1926.9426 1203.1696,1926.9426 L 1203.1696,1926.9426 M 1204.4118,1922.2238 C 1204.2741,1922.7033 1204.237,1923.1623 1204.237,1923.6574 C 1203.3786,1922.0734 1202.0788,1921.9191 1201.28,1921.9191 C 1199.0808,1921.9191 1197.8962,1923.1603 1197.8962,1924.7472 C 1197.8962,1925.5085 1198.1638,1926.7306 1199.5769,1927.5544 C 1200.6081,1928.1271 1202.1374,1928.1833 1202.8991,1928.1833 C 1203.3591,1928.1833 1203.6462,1928.1628 1204.2009,1928.1271 C 1204.2009,1929.3097 1204.2009,1929.8268 1203.8581,1930.2443 C 1203.4939,1930.7218 1202.7097,1930.8761 1202.1941,1930.8761 C 1200.3796,1930.8761 1200.2849,1929.6325 1200.2654,1929.2521 L 1198.4685,1929.2521 C 1198.5271,1929.7477 1198.5857,1930.4162 1199.1374,1931.0622 C 1199.865,1931.8649 1201.2195,1932.0954 1202.2331,1932.0954 C 1203.6267,1932.0954 1205.115,1931.654 1205.6325,1930.6823 C 1205.9372,1930.1105 1205.9558,1929.6515 1205.9558,1929.2121 L 1205.8796,1924.6261 C 1205.8796,1924.4743 1205.8991,1923.1965 1206.032,1922.2204 L 1204.4118,1922.2204"
         id="path53"
         style="fill:#000000;fill-opacity:1;fill-rule:nonzero;stroke:none" /><path
         d="M 1209.3366,1931.8498 L 1211.0398,1931.8498 L 1211.0398,1933.8566 L 1212.8142,1934.4289 L 1212.8142,1931.8498 L 1214.9538,1931.8498 L 1214.9538,1930.5334 L 1212.8142,1930.5334 L 1212.8142,1924.7829 C 1212.8142,1924.3063 1212.8142,1923.5036 1214.0945,1923.5036 C 1214.4568,1923.5036 1214.7995,1923.5597 1214.9538,1923.6012 L 1214.9538,1922.2057 C 1214.6296,1922.1491 1214.114,1922.092 1213.4636,1922.092 C 1211.8191,1922.092 1211.0398,1922.5715 1211.0398,1924.1349 L 1211.0398,1930.5343 L 1209.3366,1930.5343 L 1209.3366,1931.8517"
         id="path55"
         style="fill:#000000;fill-opacity:1;fill-rule:nonzero;stroke:none" /><path
         d="M 1218.8122,1931.8141 L 1220.6062,1931.8141 L 1220.6062,1922.2238 L 1218.8122,1922.2238 L 1218.8122,1931.8141 L 1218.8122,1931.8141 M 1218.6198,1935.9777 L 1220.78,1935.9777 L 1220.78,1934.009 L 1218.6198,1934.009 L 1218.6198,1935.9777"
         id="path57"
         style="fill:#000000;fill-opacity:1;fill-rule:nonzero;stroke:none" /><path
         d="M 1231.1872,1928.7394 C 1231.1491,1929.1769 1231.0173,1930.7419 1229.279,1930.7419 C 1226.7956,1930.7419 1226.7956,1927.8615 1226.7956,1927.134 C 1226.7956,1925.1652 1227.2732,1923.3302 1229.1823,1923.3302 C 1230.7087,1923.3302 1231.2273,1924.4777 1231.2663,1925.4142 L 1233.0808,1925.4142 C 1232.9655,1923.5412 1231.571,1921.9777 1229.2029,1921.9777 C 1228.5534,1921.9777 1227.0622,1922.1095 1226.0515,1923.2194 C 1225.4792,1923.8859 1224.905,1924.8996 1224.905,1926.8835 C 1224.905,1930.8781 1227.3513,1932.0627 1229.2624,1932.0627 C 1229.8904,1932.0627 1231.323,1931.9274 1232.2029,1930.8791 C 1232.9099,1930.0563 1232.9655,1929.2746 1233.0056,1928.7414 L 1231.1911,1928.7414"
         id="path59"
         style="fill:#000000;fill-opacity:1;fill-rule:nonzero;stroke:none" /><path
         d="M 1244.2146,1929.8664 C 1244.2146,1930.5158 1244.1765,1931.1847 1244.1198,1931.8141 L 1245.9362,1931.8141 L 1245.9734,1929.9621 C 1246.3161,1931.298 1247.4626,1931.7365 1248.2644,1931.8517 C 1248.7995,1931.9289 1249.1989,1931.9103 1249.5085,1931.8913 L 1249.5085,1930.1335 C 1249.4099,1930.1716 1249.2956,1930.1906 1249.1618,1930.2092 C 1249.0251,1930.2297 1248.8562,1930.2297 1248.6452,1930.2297 C 1246.5261,1930.2297 1246.03,1928.9694 1246.03,1927.3263 L 1246.03,1922.2238 L 1244.2146,1922.2238 L 1244.2146,1929.8664"
         id="path61"
         style="fill:#000000;fill-opacity:1;fill-rule:nonzero;stroke:none" /><path
         d="M 1259.3239,1927.9562 C 1259.3435,1928.8713 1259.1687,1930.7814 1256.9538,1930.7814 C 1255.7898,1930.7814 1254.3767,1930.0754 1254.3386,1927.9562 L 1259.3239,1927.9562 L 1259.3239,1927.9562 M 1254.2585,1926.6969 C 1254.2224,1924.7072 1255.0427,1923.2375 1257.0105,1923.2375 C 1258.1755,1923.2375 1259.1101,1923.8483 1259.2634,1925.2238 L 1261.0593,1925.2238 C 1261.0007,1924.7487 1260.9245,1923.965 1260.237,1923.2194 C 1259.8171,1922.7404 1258.862,1921.9401 1256.9323,1921.9401 C 1253.9148,1921.9401 1252.4812,1923.8107 1252.4812,1926.8478 C 1252.4812,1928.7394 1252.864,1930.3068 1254.3718,1931.3542 C 1255.2878,1932.0065 1256.4343,1932.0627 1256.988,1932.0627 C 1261.2868,1932.0627 1261.1902,1928.2609 1261.1511,1926.6969 L 1254.2566,1926.6969"
         id="path63"
         style="fill:#000000;fill-opacity:1;fill-rule:nonzero;stroke:none" /><path
         d="M 1266.446,1925.0705 C 1266.4265,1924.3459 1266.8112,1923.3322 1268.5476,1923.3322 C 1269.2898,1923.3322 1269.8445,1923.4679 1270.2273,1923.9465 C 1270.4206,1924.1935 1270.5329,1924.5192 1270.5329,1924.8429 C 1270.5329,1925.7775 1269.864,1925.9513 1268.4333,1926.2756 C 1266.4284,1926.7331 1264.7458,1927.134 1264.7458,1929.1388 C 1264.7458,1930.8967 1266.2741,1932.0441 1268.488,1932.0441 C 1269.6941,1932.0441 1271.3737,1931.6994 1271.946,1930.5519 C 1272.195,1930.0187 1272.195,1929.5612 1272.195,1929.1574 L 1270.365,1929.1574 C 1270.4206,1930.6105 1269.1618,1930.7228 1268.5124,1930.7228 C 1268.2429,1930.7228 1266.5622,1930.7228 1266.5622,1929.3478 C 1266.5622,1928.4699 1267.4236,1928.2609 1267.9187,1928.1271 C 1270.5749,1927.4963 1271.1452,1927.3434 1271.7165,1926.8063 C 1272.2517,1926.3088 1272.446,1925.6427 1272.446,1925.0319 C 1272.446,1923.9621 1271.8523,1923.0441 1271.1482,1922.6047 C 1270.3054,1922.089 1269.2937,1921.9548 1268.3015,1921.9548 C 1266.3532,1921.9548 1264.5378,1922.7551 1264.5573,1925.0676 L 1266.448,1925.0676"
         id="path65"
         style="fill:#000000;fill-opacity:1;fill-rule:nonzero;stroke:none" /><path
         d="M 1282.738,1927.9562 C 1282.7575,1928.8713 1282.5876,1930.7814 1280.3728,1930.7814 C 1279.2038,1930.7814 1277.7907,1930.0754 1277.7527,1927.9562 L 1282.738,1927.9562 L 1282.738,1927.9562 M 1277.6794,1926.6969 C 1277.6404,1924.7072 1278.4577,1923.2375 1280.4284,1923.2375 C 1281.5935,1923.2375 1282.53,1923.8483 1282.6823,1925.2238 L 1284.4753,1925.2238 C 1284.4196,1924.7487 1284.3435,1923.965 1283.656,1923.2194 C 1283.2351,1922.7404 1282.281,1921.9401 1280.3503,1921.9401 C 1277.3308,1921.9401 1275.8991,1923.8107 1275.8991,1926.8478 C 1275.8991,1928.7394 1276.28,1930.3068 1277.7898,1931.3542 C 1278.7077,1932.0065 1279.8523,1932.0627 1280.4089,1932.0627 C 1284.7038,1932.0627 1284.6091,1928.2609 1284.5691,1926.6969 L 1277.6765,1926.6969"
         id="path67"
         style="fill:#000000;fill-opacity:1;fill-rule:nonzero;stroke:none" /><path
         d="M 1293.4343,1926.9426 C 1292.7077,1926.9426 1289.9753,1926.9426 1289.9753,1924.9924 C 1289.9753,1924.382 1290.3581,1923.3302 1291.9655,1923.3302 C 1292.8806,1923.3302 1293.5661,1923.696 1294.0066,1924.3644 C 1294.407,1925.0143 1294.4265,1925.548 1294.4655,1926.8835 C 1294.1413,1926.923 1293.8718,1926.9426 1293.4343,1926.9426 L 1293.4343,1926.9426 M 1294.6745,1922.2238 C 1294.5446,1922.7033 1294.5046,1923.1623 1294.5046,1923.6574 C 1293.6452,1922.0734 1292.3445,1921.9191 1291.5437,1921.9191 C 1289.3454,1921.9191 1288.1648,1923.1603 1288.1648,1924.7472 C 1288.1648,1925.5085 1288.4323,1926.7306 1289.8445,1927.5544 C 1290.8757,1928.1271 1292.4021,1928.1833 1293.1696,1928.1833 C 1293.6267,1928.1833 1293.9109,1928.1628 1294.4665,1928.1271 C 1294.4665,1929.3097 1294.4665,1929.8268 1294.1198,1930.2443 C 1293.7605,1930.7218 1292.9753,1930.8761 1292.4607,1930.8761 C 1290.6443,1930.8761 1290.5495,1929.6325 1290.5329,1929.2521 L 1288.737,1929.2521 C 1288.7937,1929.7477 1288.8523,1930.4162 1289.406,1931.0622 C 1290.1335,1931.8649 1291.4909,1932.0954 1292.5007,1932.0954 C 1293.8952,1932.0954 1295.3845,1931.654 1295.9021,1930.6823 C 1296.2058,1930.1105 1296.2243,1929.6515 1296.2243,1929.2121 L 1296.1472,1924.6261 C 1296.1472,1924.4743 1296.1706,1923.1965 1296.3015,1922.2204 L 1294.6765,1922.2204"
         id="path69"
         style="fill:#000000;fill-opacity:1;fill-rule:nonzero;stroke:none" /><path
         d="M 1301.1716,1929.8664 C 1301.1716,1930.5158 1301.1306,1931.1847 1301.0749,1931.8141 L 1302.8894,1931.8141 L 1302.9284,1929.9621 C 1303.2712,1931.298 1304.4187,1931.7365 1305.2214,1931.8517 C 1305.7546,1931.9289 1306.157,1931.9103 1306.4646,1931.8913 L 1306.4646,1930.1335 C 1306.3689,1930.1716 1306.2536,1930.1906 1306.1179,1930.2092 C 1305.9861,1930.2297 1305.8132,1930.2297 1305.6013,1930.2297 C 1303.4851,1930.2297 1302.987,1928.9694 1302.987,1927.3263 L 1302.987,1922.2238 L 1301.1745,1922.2238 L 1301.1745,1929.8664"
         id="path71"
         style="fill:#000000;fill-opacity:1;fill-rule:nonzero;stroke:none" /><path
         d="M 1315.5896,1928.7394 C 1315.5515,1929.1769 1315.4177,1930.7419 1313.6823,1930.7419 C 1311.198,1930.7419 1311.198,1927.8615 1311.198,1927.134 C 1311.198,1925.1652 1311.6755,1923.3302 1313.5866,1923.3302 C 1315.114,1923.3302 1315.6325,1924.4777 1315.6687,1925.4142 L 1317.4802,1925.4142 C 1317.3679,1923.5412 1315.9734,1921.9777 1313.6062,1921.9777 C 1312.9558,1921.9777 1311.4675,1922.1095 1310.4529,1923.2194 C 1309.8786,1923.8859 1309.3064,1924.8996 1309.3064,1926.8835 C 1309.3064,1930.8781 1311.7527,1932.0627 1313.6609,1932.0627 C 1314.2917,1932.0627 1315.7253,1931.9274 1316.6032,1930.8791 C 1317.3112,1930.0563 1317.3679,1929.2746 1317.405,1928.7414 L 1315.5896,1928.7414"
         id="path73"
         style="fill:#000000;fill-opacity:1;fill-rule:nonzero;stroke:none" /><path
         d="M 1320.3445,1935.9967 L 1322.1589,1935.9967 L 1322.1589,1930.401 C 1322.7517,1931.4133 1323.9362,1931.9875 1325.2712,1931.9875 C 1326.2859,1931.9875 1327.7361,1931.6213 1328.2878,1930.4582 C 1328.4812,1930.0754 1328.613,1929.6154 1328.613,1928.2238 L 1328.613,1922.2238 L 1326.781,1922.2238 L 1326.781,1927.8996 C 1326.781,1928.7585 1326.781,1930.612 1324.7175,1930.612 C 1323.3796,1930.612 1322.7136,1929.7907 1322.4636,1929.3312 C 1322.1589,1928.7961 1322.1589,1927.8996 1322.1589,1927.3073 L 1322.1589,1922.2238 L 1320.3445,1922.2238 L 1320.3445,1935.9967"
         id="path75"
         style="fill:#000000;fill-opacity:1;fill-rule:nonzero;stroke:none" /></g></g></svg>